<?xml version="1.0" encoding="UTF-8" standalone="no"?>
<svg
   width="22.862"
   height="25.120001"
   version="1.1"
   id="svg6"
   sodipodi:docname="icon.svg"
   inkscape:version="1.1.2 (0a00cf5339, 2022-02-04)"
   xmlns:inkscape="http://www.inkscape.org/namespaces/inkscape"
   xmlns:sodipodi="http://sodipodi.sourceforge.net/DTD/sodipodi-0.dtd"
   xmlns="http://www.w3.org/2000/svg"
   xmlns:svg="http://www.w3.org/2000/svg">
  <defs
     id="defs10" />
  <sodipodi:namedview
     id="namedview8"
     pagecolor="#ffffff"
     bordercolor="#666666"
     borderopacity="1.0"
     inkscape:pageshadow="2"
     inkscape:pageopacity="0.0"
     inkscape:pagecheckerboard="0"
     showgrid="false"
     fit-margin-top="0"
     fit-margin-left="0"
     fit-margin-right="0"
     fit-margin-bottom="0"
     inkscape:zoom="22.71875"
     inkscape:cx="11.444292"
     inkscape:cy="12.390646"
     inkscape:window-width="1920"
     inkscape:window-height="1025"
     inkscape:window-x="0"
     inkscape:window-y="31"
     inkscape:window-maximized="1"
     inkscape:current-layer="svg6" />
  <path
     d="M 0,12.56 V 0 L 4.21,0.041 8.42,0.082 11.351,4.385 14.426,8.6 C 14.509,8.549 14.57,6.705 14.57,4.255 V 0 l 4.146,0.041 4.146,0.041 V 12.56 25.038 l -4.146,0.041 -4.146,0.041 v -0.436 c 0,-0.311 -0.846,-1.678 -2.949,-4.769 L 8.523,15.531 C 8.431,15.499 8.359,17.302 8.334,20.258 l -0.041,4.778 -4.146,0.041 -4.146,0.041 z"
     fill="#6fa0bb"
     id="path2" />
  <path
     d="M 13.755,22.674 10.947,18.573 8.52,15.115 C 8.319,14.991 8.315,0.78 8.516,0.78 c 0.081,0 1.313,1.726 2.739,3.836 l 2.954,4.274 0.361,0.438 v 7.041 c 0,4.153 -0.058,7.041 -0.142,7.041 -0.078,0 -0.381,-0.331 -0.673,-0.736 z"
     fill="#5c59be"
     id="path4" />
</svg>
