<?xml version="1.0" encoding="UTF-8" standalone="no"?>
<!-- Created with Inkscape (http://www.inkscape.org/) -->

<svg
   xmlns:dc="http://purl.org/dc/elements/1.1/"
   xmlns:cc="http://creativecommons.org/ns#"
   xmlns:rdf="http://www.w3.org/1999/02/22-rdf-syntax-ns#"
   xmlns:svg="http://www.w3.org/2000/svg"
   xmlns="http://www.w3.org/2000/svg"
   xmlns:sodipodi="http://sodipodi.sourceforge.net/DTD/sodipodi-0.dtd"
   xmlns:inkscape="http://www.inkscape.org/namespaces/inkscape"
   width="32px"
   height="32px"
   viewBox="0 0 32 32"
   version="1.1"
   id="SVGRoot"
   inkscape:version="0.92.5 (2060ec1f9f, 2020-04-08)"
   sodipodi:docname="icon.svg">
  <defs
     id="defs10" />
  <sodipodi:namedview
     id="base"
     pagecolor="#ffffff"
     bordercolor="#666666"
     borderopacity="1.0"
     inkscape:pageopacity="0.0"
     inkscape:pageshadow="2"
     inkscape:zoom="8"
     inkscape:cx="21"
     inkscape:cy="-14"
     inkscape:document-units="px"
     inkscape:current-layer="layer1"
     showgrid="false"
     inkscape:window-width="1920"
     inkscape:window-height="1019"
     inkscape:window-x="0"
     inkscape:window-y="33"
     inkscape:window-maximized="1"
     inkscape:grid-bbox="true" />
  <metadata
     id="metadata13">
    <rdf:RDF>
      <cc:Work
         rdf:about="">
        <dc:format>image/svg+xml</dc:format>
        <dc:type
           rdf:resource="http://purl.org/dc/dcmitype/StillImage" />
        <dc:title></dc:title>
      </cc:Work>
    </rdf:RDF>
  </metadata>
  <g
     inkscape:label="Layer 1"
     inkscape:groupmode="layer"
     id="layer1">
    <g
       id="g65"
       transform="translate(0.250003,0.1599402)">
      <path
         style="fill:#6fa0bb;stroke-width:0.155"
         d="M 4.2916717,15.988369 V 3.4283459 l 4.2100388,0.041241 4.2100385,0.041241 2.931132,4.3034936 c 1.612123,2.3669215 2.995856,4.2634925 3.074962,4.2146025 0.08279,-0.05117 0.143829,-1.895078 0.143829,-4.3447754 V 3.4282649 l 4.14625,0.041282 4.14625,0.041282 v 12.4775001 12.4775 l -4.14625,0.04128 -4.14625,0.04128 V 28.11225 c 0,-0.311111 -0.845508,-1.678197 -2.949372,-4.768781 -1.622154,-2.382953 -3.016138,-4.355553 -3.097742,-4.383555 -0.09181,-0.03151 -0.164003,1.770601 -0.189379,4.7275 l -0.04101,4.778414 -4.1462502,0.04128 -4.1462501,0.04128 z"
         id="path69"
         inkscape:connector-curvature="0" />
      <path
         style="fill:#5c59be;stroke-width:0.155"
         d="M 18.046917,26.102078 C 17.754781,25.697141 16.491303,23.851622 15.239188,22.000927 13.987074,20.150232 12.894904,18.594179 12.812144,18.54303 12.61088,18.418641 12.606883,4.2083282 12.808112,4.2083282 c 0.08054,0 1.313139,1.7263126 2.739105,3.83625 1.425966,2.1099378 2.755067,4.0334138 2.95356,4.2743928 l 0.360895,0.438142 v 7.040608 c 0,4.153428 -0.05815,7.040607 -0.141799,7.040607 -0.07799,0 -0.380819,-0.331312 -0.672956,-0.73625 z"
         id="path67"
         inkscape:connector-curvature="0" />
    </g>
  </g>
</svg>
