<svg xmlns="http://www.w3.org/2000/svg" width="32" height="32" xmlns:v="https://vecta.io/nano"><path d="M4.542 16.148V3.588l4.21.041 4.21.041 2.931 4.303 3.075 4.215c.083-.051.144-1.895.144-4.345V3.588l4.146.041 4.146.041v12.478 12.478l-4.146.041-4.146.041v-.436c0-.311-.846-1.678-2.949-4.769l-3.098-4.384c-.092-.032-.164 1.771-.189 4.727l-.041 4.778-4.146.041-4.146.041z" fill="#6fa0bb"/><path d="M18.297 26.262l-2.808-4.101-2.427-3.458c-.201-.124-.205-14.335-.004-14.335.081 0 1.313 1.726 2.739 3.836l2.954 4.274.361.438v7.041c0 4.153-.058 7.041-.142 7.041-.078 0-.381-.331-.673-.736z" fill="#5c59be"/></svg>